#!OML:ASF X:\für Bonn\!DataBase\2005_08_11_Bastian_Final\c3d\Bastian.ASF
:FULLY-SPECIFIED
:DEGREES
142
root -2.31005 17.5184 6.41927 151.875 -18.4876 -168.647
lowerback 29.0972 -7.13783 0.774614
upperback 13.3798 -12.7976 2.15955
thorax -0.142475 -8.10076 5.46534
lowerneck -12.7366 -6.62035 -2.33407
upperneck -6.80751 -7.36628 12.4026
head 0.647999 -3.0169 4.15717
rclavicle 7.00716e-014 -5.12864e-014
rhumerus -40.4027 37.7469 -95.7893
rradius 42.3339
rwrist -30.9869
rhand -32.7048 6.79245
rfingers 7.12502
rthumb -5.92922 -23.1046
lclavicle 7.00716e-014 -5.12864e-014
lhumerus 35.7707 -27.0787 68.4401
lradius 82.5415
lwrist -19.025
lhand -55.4103 -6.49854
lfingers 7.12502
lthumb -27.7726 21.4697
rfemur -44.5724 -11.0449 25.3166
rtibia 111.686
rfoot -2.42638 -6.07258
rtoes -6.44834
lfemur 19.34 -0.45385 -11.5065
ltibia 17.5536
lfoot -4.47238 -6.99729
ltoes -3.51709
143
root -2.30819 17.5333 6.3876 152.512 -18.1728 -168.804
lowerback 28.1138 -7.09621 0.763193
upperback 13.0809 -12.5691 2.11218
thorax -0.0882829 -7.89464 5.2299
lowerneck -12.3242 -6.63104 -2.39102
upperneck -6.68694 -7.42629 12.2802
head 0.617863 -3.07592 4.12773
rclavicle 6.83819e-014 -6.16232e-014
rhumerus -40.9853 37.4623 -96.0801
rradius 42.2992
rwrist -31.3396
rhand -32.8489 6.40885
rfingers 7.12502
rthumb -6.06834 -23.4842
lclavicle 6.83819e-014 -6.16232e-014
lhumerus 34.5917 -27.9587 67.781
lradius 81.0509
lwrist -18.6655
lhand -54.899 -5.82256
lfingers 7.12502
lthumb -27.2835 22.2236
rfemur -42.3933 -10.4141 25.081
rtibia 109.694
rfoot -2.44211 -6.69929
rtoes -7.11217
lfemur 19.0459 -0.278469 -11.5311
ltibia 17.2819
lfoot -4.46919 -6.7781
ltoes -3.46127
144
root -2.30686 17.5446 6.35437 153.16 -17.8513 -168.998
lowerback 27.1069 -7.04218 0.725414
upperback 12.7871 -12.3378 2.05837
thorax -0.00431491 -7.69167 4.99869
lowerneck -11.9471 -6.63455 -2.46416
upperneck -6.53849 -7.47726 12.1675
head 0.603474 -3.12747 4.10471
rclavicle 8.19987e-014 -2.18663e-014
rhumerus -41.4817 37.1091 -96.3176
rradius 42.2069
rwrist -31.5944
rhand -32.9581 6.10023
rfingers 7.12502
rthumb -6.17378 -23.7898
lclavicle 8.19987e-014 -2.18663e-014
lhumerus 33.3674 -28.8231 67.2155
lradius 79.5658
lwrist -18.4555
lhand -54.3688 -5.30922
lfingers 7.12502
lthumb -26.7763 22.8156
rfemur -40.2695 -9.75449 24.8545
rtibia 107.653
rfoot -2.44224 -7.36658
rtoes -7.92811
lfemur 18.7131 -0.120495 -11.6097
ltibia 17.115
lfoot -4.53943 -6.52864
ltoes -3.38079
145
root -2.30224 17.5512 6.32129 153.803 -17.5323 -169.199
lowerback 26.1201 -6.98006 0.670994
upperback 12.4872 -12.1021 1.99754
thorax 0.074355 -7.48883 4.77577
lowerneck -11.5577 -6.63367 -2.50281
upperneck -6.3832 -7.52731 12.0377
head 0.586359 -3.17961 4.0697
rclavicle -1.5704e-014 -5.1684e-015
rhumerus -41.964 36.6818 -96.5546
rradius 42.1344
rwrist -31.8086
rhand -33.0907 5.87155
rfingers 7.12502
rthumb -6.30181 -24.0147
lclavicle -1.5704e-014 -5.1684e-015
lhumerus 32.1175 -29.7064 66.675
lradius 78.0464
lwrist -18.3957
lhand -53.8786 -4.87505
lfingers 7.12502
lthumb -26.3071 23.3207
rfemur -38.2095 -9.08113 24.6697
rtibia 105.587
rfoot -2.45343 -8.08109
rtoes -8.67113
lfemur 18.2812 0.0417783 -11.6875
ltibia 17.1398
lfoot -4.70477 -6.30708
ltoes -3.28022
146
root -2.29006 17.5513 6.28658 154.463 -17.202 -169.453
lowerback 25.1582 -6.86857 0.5057
upperback 12.167 -11.8238 1.94186
thorax 0.145952 -7.26991 4.61741
lowerneck -11.146 -6.64095 -2.54254
upperneck -6.24507 -7.58487 11.9172
head 0.560684 -3.23565 4.0389
rclavicle -1.44119e-014 9.93923e-015
rhumerus -42.4521 36.2588 -96.812
rradius 42.0526
rwrist -32.0638
rhand -33.2224 5.64122
rfingers 7.12502
rthumb -6.42892 -24.2412
lclavicle -1.44119e-014 9.93923e-015
lhumerus 30.7638 -30.592 66.2956
lradius 76.5781
lwrist -18.6008
lhand -53.3326 -4.54169
lfingers 7.12502
lthumb -25.7843 23.7311
rfemur -36.2489 -8.38609 24.5144
rtibia 103.525
rfoot -2.47004 -8.90304
rtoes -9.63141
lfemur 17.7401 0.414002 -11.6943
ltibia 17.3678
lfoot -4.90489 -6.31863
ltoes -3.08223
147
root -2.27888 17.5485 6.25267 155.102 -16.8353 -169.657
lowerback 24.2156 -6.77609 0.407825
upperback 11.8406 -11.5606 1.90033
thorax 0.203278 -7.05965 4.45031
lowerneck -10.7718 -6.62898 -2.58442
upperneck -6.0555 -7.62373 11.7752
head 0.555744 -3.28078 4.00084
rclavicle 1.00784e-013 -6.08281e-014
rhumerus -42.9426 35.8457 -97.0608
rradius 42.0101
rwrist -32.3028
rhand -33.4004 5.48577
rfingers 7.12502
rthumb -6.6008 -24.3914
lclavicle 1.00784e-013 -6.08281e-014
lhumerus 29.295 -31.4113 66.0737
lradius 75.0954
lwrist -19.0023
lhand -52.7948 -4.61789
lfingers 7.12502
lthumb -25.2692 23.7286
rfemur -34.3313 -7.71759 24.4429
rtibia 101.424
rfoot -2.44893 -9.76024
rtoes -10.6456
lfemur 17.1065 0.804185 -11.6453
ltibia 17.7896
lfoot -5.21784 -6.34772
ltoes -3.01347
148
root -2.26671 17.5424 6.21917 155.76 -16.4645 -169.907
lowerback 23.2644 -6.65725 0.270038
upperback 11.519 -11.276 1.85712
thorax 0.283584 -6.84366 4.29988
lowerneck -10.4135 -6.624 -2.65198
upperneck -5.89091 -7.66225 11.6642
head 0.548068 -3.32289 3.97889
rclavicle -2.96189e-014 6.36111e-015
rhumerus -43.3477 35.4045 -97.2584
rradius 41.921
rwrist -32.5407
rhand -33.5761 5.37923
rfingers 7.12502
rthumb -6.77033 -24.4925
lclavicle -2.96189e-014 6.36111e-015
lhumerus 27.7761 -32.2009 66.0082
lradius 73.5792
lwrist -19.7359
lhand -52.2948 -4.83828
lfingers 7.12502
lthumb -24.7901 23.575
rfemur -32.4847 -7.03102 24.3324
rtibia 99.3232
rfoot -2.43878 -10.4876
rtoes -11.2973
lfemur 16.3942 1.17352 -11.6638
ltibia 18.3683
lfoot -5.59688 -6.3638
ltoes -2.73996
149
root -2.2546 17.5351 6.18651 156.405 -16.0524 -170.089
lowerback 22.3296 -6.56804 0.254501
upperback 11.1767 -11.0031 1.79938
thorax 0.318264 -6.62688 4.08244
lowerneck -10.0198 -6.60471 -2.69228
upperneck -5.71881 -7.68488 11.5594
head 0.534368 -3.35832 3.956
rclavicle -6.07784e-014 3.33958e-014
rhumerus -43.7453 34.8898 -97.4916
rradius 41.7851
rwrist -32.725
rhand -33.7515 5.39507
rfingers 7.12502
rthumb -6.93974 -24.4712
lclavicle -6.07784e-014 3.33958e-014
lhumerus 26.1265 -32.9595 66.1027
lradius 72.0479
lwrist -20.6624
lhand -51.7918 -5.37976
lfingers 7.12502
lthumb -24.308 23.099
rfemur -30.7158 -6.35109 24.3272
rtibia 97.1963
rfoot -2.52698 -11.082
rtoes -12.2004
lfemur 15.6141 1.52739 -11.6173
ltibia 19.0667
lfoot -6.04228 -6.35867
ltoes -2.59409
150
root -2.24255 17.5251 6.15465 157.08 -15.6413 -170.292
lowerback 21.3608 -6.4655 0.219889
upperback 10.848 -10.7268 1.75814
thorax 0.400109 -6.4153 3.88845
lowerneck -9.68355 -6.59422 -2.74189
upperneck -5.56957 -7.71328 11.4285
head 0.522483 -3.39398 3.92439
rclavicle 7.32025e-014 -2.62396e-014
rhumerus -44.0595 34.3931 -97.6497
rradius 41.6998
rwrist -32.8967
rhand -33.93 5.33845
rfingers 7.12502
rthumb -7.112 -24.5221
lclavicle 7.32025e-014 -2.62396e-014
lhumerus 24.4786 -33.6573 66.3002
lradius 70.4851
lwrist -21.7849
lhand -51.358 -6.05134
lfingers 7.12502
lthumb -23.8919 22.4825
rfemur -29.0388 -5.63264 24.2954
rtibia 95.0731
rfoot -2.73128 -11.506
rtoes -12.5191
lfemur 14.7825 1.79569 -11.6449
ltibia 19.8199
lfoot -6.53825 -6.26116
ltoes -2.23885
151
root -2.23103 17.5123 6.12479 157.748 -15.1761 -170.435
lowerback 20.4169 -6.36485 0.290234
upperback 10.5096 -10.439 1.72737
thorax 0.451932 -6.19645 3.65752
lowerneck -9.41682 -6.58593 -2.78844
upperneck -5.35556 -7.75101 11.2999
head 0.544344 -3.43034 3.88997
rclavicle -1.07592e-013 6.24184e-014
rhumerus -44.3528 33.9084 -97.8115
rradius 41.5837
rwrist -33.0829
rhand -34.094 5.38193
rfingers 7.12502
rthumb -7.27034 -24.4732
lclavicle -1.07592e-013 6.24184e-014
lhumerus 22.7572 -34.3211 66.6855
lradius 68.8615
lwrist -23.1096
lhand -50.9806 -6.745
lfingers 7.12502
lthumb -23.53 21.8358
rfemur -27.4635 -4.89727 24.3502
rtibia 92.9502
rfoot -2.97468 -11.8693
rtoes -12.1487
lfemur 13.936 2.02244 -11.6283
ltibia 20.5924
lfoot -7.04823 -6.10374
ltoes -1.91891
152
root -2.22021 17.5011 6.09497 158.414 -14.6776 -170.594
lowerback 19.4632 -6.26415 0.38478
upperback 10.1884 -10.1575 1.6668
thorax 0.526791 -5.98317 3.38523
lowerneck -9.15555 -6.56076 -2.81752
upperneck -5.15282 -7.76237 11.1961
head 0.56185 -3.45204 3.86261
rclavicle 3.13583e-014 -1.55052e-014
rhumerus -44.5862 33.4016 -97.9852
rradius 41.464
rwrist -33.2486
rhand -34.2636 5.40007
rfingers 7.12502
rthumb -7.43406 -24.4493
lclavicle 3.13583e-014 -1.55052e-014
lhumerus 21.0129 -34.9402 67.1305
lradius 67.1888
lwrist -24.4686
lhand -50.6216 -7.47023
lfingers 7.12502
lthumb -23.1855 21.1543
rfemur -25.9365 -4.11856 24.4036
rtibia 90.8125
rfoot -3.24276 -12.1791
rtoes -11.4937
lfemur 13.1141 2.20075 -11.6617
ltibia 21.3399
lfoot -7.5861 -5.84651
ltoes -1.5968
153
root -2.20958 17.4909 6.06208 159.108 -14.1198 -170.755
lowerback 18.4481 -6.13331 0.493088
upperback 9.884 -9.84595 1.62424
thorax 0.659695 -5.75979 3.11316
lowerneck -8.93054 -6.54882 -2.86916
upperneck -5.00237 -7.77961 11.0995
head 0.570427 -3.47422 3.84156
rclavicle 4.72114e-015 1.59028e-015
rhumerus -44.7134 32.8631 -98.0874
rradius 41.3133
rwrist -33.3961
rhand -34.4311 5.48029
rfingers 7.12502
rthumb -7.59571 -24.3633
lclavicle 4.72114e-015 1.59028e-015
lhumerus 19.2779 -35.5703 67.6775
lradius 65.498
lwrist -25.7631
lhand -50.3382 -8.06168
lfingers 7.12502
lthumb -22.9136 20.5968
rfemur -24.4636 -3.31284 24.4834
rtibia 88.6555
rfoot -3.63839 -12.5114
rtoes -10.6291
lfemur 12.3137 2.43342 -11.6745
ltibia 22.0254
lfoot -8.08917 -5.59581
ltoes -1.35934
154
root -2.19918 17.4829 6.02711 159.793 -13.5188 -170.897
lowerback 17.3939 -5.99291 0.632115
upperback 9.61665 -9.53474 1.58642
thorax 0.858286 -5.5424 2.82631
lowerneck -8.83273 -6.52591 -2.90858
upperneck -4.77345 -7.78891 10.9905
head 0.62476 -3.48657 3.8098
rclavicle -9.78021e-014 4.21423e-014
rhumerus -44.7258 32.3451 -98.1371
rradius 41.1824
rwrist -33.5337
rhand -34.5182 5.47676
rfingers 7.12502
rthumb -7.67977 -24.3638
lclavicle -9.78021e-014 4.21423e-014
lhumerus 17.5484 -36.1963 68.2544
lradius 63.8454
lwrist -26.8398
lhand -50.019 -8.45479
lfingers 7.12502
lthumb -22.6073 20.2413
rfemur -23.0055 -2.51848 24.6129
rtibia 86.4593
rfoot -4.05205 -12.869
rtoes -10.2729
lfemur 11.5719 2.63763 -11.6806
ltibia 22.61
lfoot -8.55816 -5.27206
ltoes -1.0193
155
root -2.18906 17.4764 5.99084 160.491 -12.9192 -171.064
lowerback 16.3185 -5.84715 0.779437
upperback 9.3586 -9.22231 1.52466
thorax 1.08154 -5.3251 2.51337
lowerneck -8.73011 -6.50406 -2.87532
upperneck -4.59255 -7.79689 10.8613
head 0.657816 -3.49908 3.75829
rclavicle 2.83765e-014 1.51076e-014
rhumerus -44.6514 31.7523 -98.1485
rradius 41.0406
rwrist -33.5947
rhand -34.5783 5.41697
rfingers 7.12502
rthumb -7.73772 -24.4215
lclavicle 2.83765e-014 1.51076e-014
lhumerus 15.7926 -36.9139 68.8712
lradius 62.2291
lwrist -27.581
lhand -49.7053 -8.58218
lfingers 7.12502
lthumb -22.3062 20.1503
rfemur -21.6034 -1.78499 24.7018
rtibia 84.2162
rfoot -4.41673 -13.2232
rtoes -10.0643
lfemur 10.8721 2.84579 -11.7261
ltibia 23.1047
lfoot -9.01374 -4.93042
ltoes -0.849167
